<svg width="300" height="300" viewBox="0 0 300 300" fill="none" xmlns="http://www.w3.org/2000/svg">
<g style="mix-blend-mode:soft-light" opacity="0.1">
<g clip-path="url(#clip0_4015_5141)">
<path d="M23.0881 75.8834C22.9509 74.3977 24.3351 74.1531 25.1465 73.6698C28.5057 71.6412 31.9781 69.8155 35.391 67.8704C39.2453 65.6748 43.0758 63.4433 46.9122 61.2178C47.6759 60.7763 48.4277 60.3049 49.3346 59.762C53.4634 62.2023 57.5982 64.8872 61.9477 67.1485C66.1839 69.3501 69.9845 72.3632 74.8293 74.344C74.889 72.936 74.9606 71.9753 74.9606 71.0207C74.9725 63.1688 75.0083 55.311 74.9367 47.4591C74.9188 45.705 75.3007 44.6191 77.0071 43.6883C82.711 40.5738 88.2777 37.1968 93.9101 33.9511C96.2847 32.5847 98.6892 31.2781 101.237 29.8581C109.554 34.6312 117.907 39.4283 126.654 44.452C126.75 43.2766 126.869 42.4533 126.869 41.6359C126.881 33.5811 126.917 25.5324 126.845 17.4776C126.827 15.819 127.209 14.7331 128.766 13.9097C131.726 12.3465 134.566 10.5565 137.465 8.88592C142.167 6.18311 146.874 3.49223 151.594 0.819252C152.185 0.48513 152.847 0.270337 153.444 0.0078125C160.514 4.02325 167.53 7.93725 174.481 11.9646C182.238 16.4633 189.899 21.1231 197.661 25.604C203.198 28.796 208.86 31.7673 214.421 34.9176C217.589 36.7135 220.638 38.7183 223.776 40.5679C228.281 43.217 232.809 45.8064 237.338 48.4138C241.694 50.9197 246.067 53.4017 250.417 55.9256C252.123 56.91 253.758 58.0138 255.47 58.9923C260.005 61.5877 264.575 64.1235 269.104 66.7308C273.626 69.3382 278.119 71.9992 282.612 74.6543C282.844 74.7915 282.987 75.072 283.172 75.2808C281.848 75.9431 280.476 76.5278 279.199 77.2736C273.835 80.4 268.513 83.61 263.137 86.7245C256.222 90.728 249.259 94.6539 242.344 98.6514C235.083 102.846 227.857 107.088 220.602 111.294C216.849 113.472 213.072 115.614 209.308 117.774C203.836 120.918 198.365 124.063 192.9 127.225C189.397 129.247 185.901 131.282 182.417 133.329C178.843 135.423 175.293 137.547 171.713 139.635C168.133 141.723 164.559 143.818 160.937 145.822C158.36 147.248 155.699 148.531 153.074 149.88C152.626 149.689 152.149 149.545 151.725 149.301C147 146.586 142.286 143.853 137.561 141.133C131.469 137.624 125.365 134.122 119.274 130.614C113.522 127.296 107.77 123.979 102.019 120.656C95.0735 116.64 88.1286 112.619 81.1776 108.609C75.3424 105.244 69.5013 101.879 63.6661 98.5202C57.8249 95.161 51.9718 91.8198 46.1425 88.4428C39.4601 84.5706 32.7955 80.6566 26.1071 76.7903C25.1943 76.2593 24.2933 75.4836 23.0762 75.8894L23.0881 75.8834ZM127.823 15.461C127.644 16.0636 127.495 16.338 127.495 16.6125C127.477 25.4548 127.489 34.2971 127.466 43.1394C127.466 44.2372 127.8 44.8995 128.832 45.4962C134.297 48.6345 139.673 51.928 145.132 55.0783C152.387 59.2668 159.696 63.3598 166.969 67.5244C168.765 68.5506 170.484 69.7081 172.274 70.7403C175.346 72.5183 178.455 74.2307 181.534 75.9908C184.439 77.6554 187.339 79.338 190.233 81.0265C194.57 83.5563 198.926 86.0682 203.228 88.6636C204.773 89.6003 206.032 89.4929 207.565 88.5442C211.819 85.913 216.193 83.4668 220.495 80.9191C223.693 79.0218 226.861 77.0767 230.101 75.1256C229.737 74.6662 229.6 74.35 229.361 74.2128C195.609 54.6726 161.844 35.1384 127.823 15.455V15.461ZM75.6945 74.9049C78.7612 76.671 81.8459 78.4191 84.9067 80.2031C89.3338 82.7866 93.7251 85.4357 98.1642 87.9953C104.644 91.7303 111.159 95.3937 117.651 99.1168C123.211 102.303 128.76 105.513 134.291 108.747C139.822 111.981 145.347 115.226 150.83 118.538C152.477 119.534 153.927 119.54 155.508 118.472C157.059 117.428 158.658 116.443 160.281 115.519C165.066 112.798 169.887 110.131 174.672 107.404C175.901 106.7 177.041 105.841 178.592 104.803C144.1 84.8987 110.002 65.2213 75.6885 45.4186V74.8989L75.6945 74.9049Z" fill="#FCFCFC"/>
<path d="M153.079 149.864C155.704 148.516 158.365 147.239 160.943 145.807C164.564 143.802 168.138 141.702 171.718 139.62C175.298 137.538 178.848 135.408 182.422 133.313C185.912 131.267 189.403 129.232 192.905 127.21C198.37 124.053 203.842 120.909 209.313 117.759C213.078 115.593 216.855 113.457 220.607 111.279C227.857 107.073 235.088 102.831 242.349 98.6363C249.27 94.6388 256.233 90.7188 263.142 86.7093C268.518 83.5948 273.834 80.3849 279.204 77.2584C280.481 76.5126 281.853 75.9279 283.178 75.2656C283.178 84.4898 283.154 93.7199 283.214 102.944C283.226 104.4 282.796 105.217 281.465 105.969C273.566 110.42 265.738 114.996 257.892 119.537C257.737 119.626 257.647 119.835 257.528 119.99C255.267 121.213 252.976 122.383 250.756 123.672C244.014 127.598 237.32 131.607 230.56 135.509C223.203 139.757 215.781 143.886 208.412 148.122C200.96 152.406 193.544 156.756 186.121 161.087C183.836 162.418 181.575 163.778 179.498 165.007V194.5C180.716 193.819 181.736 193.27 182.738 192.692C185.727 190.955 188.705 189.195 191.7 187.471C196.151 184.911 200.632 182.394 205.083 179.834C209.707 177.173 214.307 174.476 218.931 171.815C222.272 169.894 225.643 168.026 228.972 166.087C234.348 162.955 239.688 159.763 245.076 156.642C249.604 154.017 254.181 151.469 258.721 148.862C263.429 146.153 268.118 143.409 272.82 140.694C275.815 138.964 278.834 137.269 281.811 135.509C282.152 135.306 282.289 134.775 282.522 134.393C283.745 134.871 283.16 135.933 283.166 136.702C283.22 143.731 283.196 150.759 283.196 157.794C283.196 160.162 283.196 162.525 283.196 164.971C278.661 167.555 274.216 170.061 269.789 172.615C266.382 174.577 262.981 176.564 259.622 178.611C258.984 178.999 258.56 179.733 258.041 180.311C256.836 180.013 255.959 180.729 255.028 181.278C252.051 183.032 249.091 184.816 246.102 186.54C241.568 189.154 236.997 191.707 232.463 194.326C228.018 196.892 223.621 199.541 219.176 202.107C214.73 204.672 210.244 207.172 205.787 209.72C200.644 212.661 195.513 215.615 190.387 218.592C187.315 220.376 184.313 222.285 181.187 223.98C179.749 224.755 179.331 225.71 179.343 227.285C179.421 235.531 179.373 243.777 179.385 252.028C179.385 252.696 179.487 253.371 179.558 254.278C180.364 253.932 181.008 253.723 181.575 253.395C184.892 251.479 188.18 249.51 191.497 247.601C198.43 243.61 205.387 239.666 212.314 235.662C219.754 231.366 227.159 227.011 234.593 222.715C239.038 220.143 243.531 217.655 247.976 215.084C253.787 211.725 259.568 208.306 265.38 204.947C270.851 201.785 276.346 198.664 281.817 195.502C282.128 195.323 282.301 194.911 282.539 194.607C282.754 194.995 283.16 195.383 283.16 195.77C283.196 205.394 283.19 215.018 283.19 224.815C281.841 225.656 280.541 226.522 279.186 227.303C274.741 229.863 270.266 232.375 265.827 234.94C261.388 237.506 256.973 240.113 252.546 242.709C248.208 245.256 243.895 247.834 239.539 250.346C235.858 252.464 232.117 254.474 228.435 256.587C224.241 258.991 220.094 261.461 215.912 263.89C212.839 265.674 209.743 267.41 206.676 269.194C202.666 271.521 198.687 273.901 194.665 276.21C189.2 279.343 183.693 282.409 178.228 285.542C173.866 288.042 169.54 290.607 165.197 293.149C161.277 295.44 157.369 297.743 153.431 299.993C153.246 300.1 152.81 299.766 152.488 299.635C153.676 298.847 153.115 297.642 153.115 296.639C153.145 248.609 153.139 200.585 153.139 152.555C153.139 151.66 153.091 150.765 153.067 149.876L153.079 149.864Z" fill="#B8B8B8"/>
<path d="M153.08 149.865C153.104 150.76 153.152 151.655 153.152 152.544C153.152 200.574 153.158 248.598 153.128 296.628C153.128 297.631 153.683 298.836 152.501 299.623C144.614 295.047 136.75 290.441 128.827 285.936C127.401 285.125 126.959 284.14 126.965 282.583C127.019 274.427 127.007 266.277 126.965 258.121C126.965 257.238 127.568 256.092 126.315 255.478C127.753 254.589 127.484 253.151 127.484 251.808C127.484 223.992 127.43 196.177 127.574 168.361C127.591 165.378 126.512 163.791 124.041 162.711C123.862 162.633 123.695 162.514 123.522 162.413C118.916 159.751 114.322 157.067 109.704 154.429C107.007 152.89 104.275 151.422 101.226 149.74V153.135C101.226 162.967 101.226 172.806 101.226 182.639C101.232 211.648 101.244 240.657 101.25 269.666C98.0455 267.912 94.8296 266.193 91.6495 264.403C87.0016 261.784 82.3716 259.129 77.7476 256.462C76.9839 256.02 76.2858 255.466 75.4744 254.905C75.4744 251.223 75.4744 247.554 75.4744 243.891C75.4744 238.336 75.4744 232.775 75.4744 227.22C75.4744 226.421 75.5818 225.556 74.3825 225.538C75.9517 224.708 75.5698 223.223 75.5698 221.892C75.5758 193.778 75.5758 165.658 75.5758 137.544V134.722C66.8349 129.728 58.3208 124.866 49.6515 119.913C49.1443 121.131 49.3233 122.222 49.3233 123.278C49.3114 140.468 49.3114 157.657 49.3174 174.841C49.3174 196.499 49.3353 218.157 49.3472 239.816C46.2148 238.145 43.0347 236.552 39.956 234.786C34.974 231.928 30.0994 228.879 25.0875 226.081C23.5363 225.216 22.9396 224.231 23.1186 222.555C23.2141 221.672 23.1365 220.765 23.1365 219.876C23.1365 172.872 23.1365 125.868 23.1365 78.8581C23.1365 77.8617 23.1126 76.8713 23.1007 75.8749C24.3179 75.4692 25.2128 76.2448 26.1317 76.7758C32.8201 80.6361 39.4846 84.5561 46.1671 88.4283C51.9963 91.8054 57.8494 95.1466 63.6906 98.5057C69.5318 101.865 75.367 105.224 81.2022 108.595C88.1531 112.604 95.0921 116.626 102.043 120.641C107.795 123.965 113.54 127.282 119.298 130.599C125.39 134.108 131.494 137.61 137.585 141.118C142.305 143.839 147.024 146.572 151.75 149.286C152.167 149.525 152.645 149.674 153.098 149.865H153.08Z" fill="#474747"/>
<path d="M101.243 269.672C101.237 240.663 101.225 211.654 101.219 182.645C101.219 172.812 101.219 162.974 101.219 153.141V149.746C104.268 151.429 107 152.902 109.697 154.436C114.315 157.073 118.915 159.752 123.515 162.419C123.688 162.52 123.85 162.64 124.035 162.717C126.505 163.797 127.585 165.378 127.567 168.367C127.423 196.183 127.483 223.999 127.477 251.814C127.477 253.157 127.746 254.595 126.308 255.484C120.884 258.658 115.455 261.826 110.031 265C107.824 266.289 105.634 267.608 103.402 268.861C102.74 269.231 101.971 269.41 101.249 269.678L101.243 269.672Z" fill="url(#paint0_linear_4015_5141)"/>
<path d="M49.3338 239.816C49.3219 218.158 49.3099 196.5 49.304 174.841C49.304 157.652 49.304 140.463 49.3099 123.279C49.3099 122.223 49.131 121.131 49.6381 119.914C58.3074 124.866 66.8215 129.729 75.5624 134.723V137.545C75.5624 165.659 75.5624 193.779 75.5564 221.893C75.5564 223.223 75.9323 224.703 74.3691 225.538C66.559 230.079 58.7489 234.619 50.9328 239.148C50.4376 239.434 49.8708 239.595 49.3338 239.816Z" fill="url(#paint1_linear_4015_5141)"/>
<path d="M282.523 134.399C282.29 134.781 282.153 135.312 281.813 135.515C278.836 137.275 275.817 138.969 272.822 140.7C268.12 143.414 263.43 146.165 258.723 148.868C254.182 151.475 249.606 154.023 245.077 156.648C239.696 159.769 234.356 162.961 228.974 166.093C225.645 168.032 222.268 169.9 218.932 171.821C214.308 174.482 209.708 177.179 205.084 179.84C200.633 182.399 196.158 184.923 191.701 187.477C188.706 189.201 185.729 190.961 182.74 192.698C181.737 193.276 180.717 193.825 179.5 194.505V165.013C181.576 163.784 183.838 162.424 186.123 161.093C193.551 156.761 200.961 152.412 208.413 148.128C215.776 143.892 223.198 139.763 230.561 135.515C237.321 131.613 244.015 127.603 250.758 123.677C252.977 122.389 255.268 121.219 257.529 119.996C260.226 121.583 262.917 123.188 265.632 124.745C271.258 127.973 276.897 131.177 282.529 134.393L282.523 134.399Z" fill="url(#paint2_linear_4015_5141)"/>
<path d="M282.552 194.608C282.313 194.912 282.14 195.324 281.83 195.503C276.359 198.665 270.863 201.786 265.392 204.948C259.581 208.307 253.799 211.726 247.988 215.085C243.543 217.656 239.05 220.144 234.605 222.716C227.171 227.012 219.767 231.367 212.326 235.663C205.399 239.667 198.442 243.611 191.509 247.602C188.192 249.511 184.905 251.48 181.587 253.396C181.014 253.724 180.376 253.933 179.571 254.279C179.499 253.372 179.397 252.698 179.397 252.029C179.386 243.784 179.433 235.538 179.356 227.286C179.344 225.705 179.761 224.757 181.199 223.981C184.32 222.292 187.321 220.377 190.4 218.593C195.525 215.622 200.656 212.669 205.799 209.721C210.256 207.173 214.743 204.673 219.188 202.108C223.633 199.542 228.03 196.899 232.475 194.328C237.01 191.708 241.58 189.155 246.115 186.541C249.11 184.817 252.069 183.033 255.04 181.279C255.971 180.73 256.848 180.014 258.053 180.312C263.674 183.576 269.3 186.84 274.915 190.115C277.468 191.601 280.01 193.11 282.558 194.608H282.552Z" fill="url(#paint3_linear_4015_5141)"/>
<path d="M127.823 15.4609C161.85 35.1443 195.608 54.6726 229.36 74.2187C229.599 74.3559 229.73 74.6662 230.1 75.1316C226.86 77.0886 223.692 79.0337 220.494 80.925C216.186 83.4727 211.819 85.919 207.565 88.5502C206.031 89.4989 204.772 89.6062 203.227 88.6695C198.925 86.0741 194.576 83.5622 190.232 81.0324C187.338 79.3439 184.439 77.6614 181.533 75.9967C178.454 74.2366 175.346 72.5183 172.273 70.7462C170.483 69.714 168.765 68.5565 166.969 67.5303C159.696 63.3717 152.387 59.2787 145.132 55.0843C139.672 51.934 134.296 48.6345 128.831 45.5021C127.799 44.9114 127.465 44.2432 127.465 43.1454C127.489 34.303 127.483 25.4607 127.495 16.6184C127.495 16.344 127.644 16.0695 127.823 15.4669V15.4609Z" fill="url(#paint4_linear_4015_5141)"/>
<path d="M75.6953 74.9022V45.4219C110.008 65.2246 144.107 84.902 178.599 104.806C177.048 105.844 175.908 106.703 174.679 107.408C169.894 110.134 165.073 112.801 160.288 115.522C158.659 116.447 157.066 117.431 155.515 118.475C153.934 119.543 152.484 119.537 150.837 118.541C145.354 115.224 139.829 111.984 134.298 108.75C128.767 105.516 123.212 102.312 117.657 99.1201C111.172 95.397 104.651 91.7336 98.171 87.9986C93.7319 85.439 89.3406 82.7899 84.9135 80.2064C81.8527 78.4164 78.768 76.6683 75.7013 74.9082L75.6953 74.9022Z" fill="url(#paint5_linear_4015_5141)"/>
</g>
</g>
<defs>
<linearGradient id="paint0_linear_4015_5141" x1="98.0775" y1="231.282" x2="127.244" y2="187.499" gradientUnits="userSpaceOnUse">
<stop stop-color="#262626"/>
<stop offset="1"/>
</linearGradient>
<linearGradient id="paint1_linear_4015_5141" x1="46.1418" y1="201.429" x2="75.3118" y2="157.683" gradientUnits="userSpaceOnUse">
<stop stop-color="#262626"/>
<stop offset="1"/>
</linearGradient>
<linearGradient id="paint2_linear_4015_5141" x1="231.014" y1="119.996" x2="231.014" y2="194.505" gradientUnits="userSpaceOnUse">
<stop stop-color="#808080"/>
<stop offset="0.626736" stop-color="#131313"/>
</linearGradient>
<linearGradient id="paint3_linear_4015_5141" x1="230.957" y1="180.242" x2="230.957" y2="254.279" gradientUnits="userSpaceOnUse">
<stop stop-color="#808080"/>
<stop offset="0.626736" stop-color="#131313"/>
</linearGradient>
<linearGradient id="paint4_linear_4015_5141" x1="178.782" y1="15.4609" x2="178.782" y2="89.3194" gradientUnits="userSpaceOnUse">
<stop stop-color="#BEBEBE"/>
<stop offset="0.621527" stop-color="#3C3C3C"/>
</linearGradient>
<linearGradient id="paint5_linear_4015_5141" x1="127.147" y1="45.4219" x2="127.147" y2="119.282" gradientUnits="userSpaceOnUse">
<stop stop-color="#BEBEBE"/>
<stop offset="0.621527" stop-color="#3C3C3C"/>
</linearGradient>
<clipPath id="clip0_4015_5141">
<rect width="260.228" height="300" fill="white" transform="translate(23.0762)"/>
</clipPath>
</defs>
</svg>
