<svg width="20" height="20" viewBox="0 0 20 20" fill="none" xmlns="http://www.w3.org/2000/svg">
<path d="M3.75 18.75H11.25C11.5814 18.7496 11.8991 18.6178 12.1335 18.3835C12.3678 18.1491 12.4996 17.8314 12.5 17.5V15.625H11.25V17.5H3.75V2.5H11.25V4.375H12.5V2.5C12.4996 2.1686 12.3678 1.85087 12.1335 1.61654C11.8991 1.3822 11.5814 1.25038 11.25 1.25H3.75C3.4186 1.25038 3.10087 1.3822 2.86654 1.61654C2.6322 1.85087 2.50038 2.1686 2.5 2.5V17.5C2.50038 17.8314 2.6322 18.1491 2.86654 18.3835C3.10087 18.6178 3.4186 18.7496 3.75 18.75Z" fill="#121F24"/>
<path d="M12.8663 12.8663L15.1075 10.625H6.25V9.375H15.1075L12.8663 7.13375L13.75 6.25L17.5 10L13.75 13.75L12.8663 12.8663Z" fill="#121F24"/>
</svg>
