<svg width="64" height="64" viewBox="0 0 64 64" fill="none" xmlns="http://www.w3.org/2000/svg">
<path d="M60.3082 16C60.3082 17.9195 60.2776 19.8446 60.29 21.7641C56.6156 24.6197 51.6523 27.2286 49.3911 28.5408C47.8683 29.4248 46.332 30.284 44.8067 31.1655C42.8038 32.3231 40.8098 33.4962 38.8219 34.6793V40.8165C39.0738 40.675 39.285 40.5607 39.4925 40.4403C40.1112 40.079 40.7275 39.7127 41.3475 39.3539C42.2688 38.8212 43.1963 38.2973 44.1176 37.7646C45.0747 37.2109 46.0269 36.6497 46.984 36.0959C47.6756 35.6961 48.3734 35.3075 49.0625 34.904C50.1753 34.2522 51.2806 33.5879 52.3958 32.9385C53.3332 32.3922 54.2805 31.8621 55.2203 31.3195C56.1947 30.7558 57.1654 30.1847 58.1386 29.6197C58.7586 29.2597 59.3835 28.9071 59.9998 28.5408C60.0702 28.4986 60.0986 28.3881 60.1467 28.3086C60.3999 28.4079 60.2789 28.6289 60.2801 28.7891C60.2912 30.2517 60.2863 31.7143 60.2863 33.1782C60.2863 33.6711 60.2863 34.1628 60.2863 34.6718C59.3477 35.2094 58.4276 35.7309 57.5112 36.2623C56.806 36.6708 56.1021 37.0842 55.4068 37.5101C55.0662 37.7181 54.8176 37.8506 54.4558 38.0651C53.8396 38.4301 53.227 38.8014 52.6083 39.1602C51.6697 39.704 50.7236 40.2354 49.785 40.7805C48.865 41.3144 47.9548 41.8656 47.0347 42.3995C46.1146 42.9334 45.1859 43.4537 44.2633 43.9838C43.1987 44.5959 42.1366 45.2105 41.0758 45.8301C40.4397 46.2013 39.8185 46.5986 39.1714 46.9512C38.8738 47.1126 38.7873 47.3113 38.7898 47.6391C38.8072 49.504 38.6882 51.3967 38.8342 53.2561C39.7006 52.8819 40.4894 52.3389 41.3055 51.8667C42.7406 51.0361 44.1806 50.2154 45.6144 49.3823C47.1545 48.4883 48.6871 47.582 50.2259 46.688C51.146 46.1529 52.076 45.6351 52.996 45.1C54.1989 44.401 55.3957 43.6896 56.5986 42.9905C57.0535 42.7262 60.2789 40.7878 60.2789 41.081C60.2863 43.0837 60.285 45.0864 60.285 47.1251C60.0059 47.3001 59.7367 47.4802 59.4564 47.6428C58.5363 48.1755 57.61 48.6982 56.6912 49.2321C55.7723 49.7659 54.8584 50.3085 53.9421 50.8486C53.0442 51.3788 52.1513 51.9152 51.2497 52.4379C50.4877 52.8786 49.7134 53.2971 48.9514 53.7366C48.0832 54.2369 47.2249 54.751 46.3591 55.2563C45.7231 55.6275 45.0821 55.9888 44.4473 56.3601C43.6174 56.8443 42.7937 57.3397 41.9613 57.8202C40.83 58.472 39.6901 59.1102 38.5588 59.7621C37.656 60.2823 36.7607 60.8162 35.8616 61.3451C35.0502 61.8219 34.2413 62.3011 33.4262 62.7692C33.2316 59.0769 33.2312 41.8462 33.3656 32.088C39.3851 28.3077 54.1543 19.6923 60.3082 16Z" fill="#068AC2"/>
<path d="M60.3082 16C60.3082 17.9195 60.2776 19.8446 60.29 21.7641C56.6156 24.6197 51.6523 27.2286 49.3911 28.5408C47.8683 29.4248 46.332 30.284 44.8067 31.1655C42.8038 32.3231 40.8098 33.4962 38.8219 34.6793V40.8165C39.0738 40.675 39.285 40.5607 39.4925 40.4403C40.1112 40.079 40.7275 39.7127 41.3475 39.3539C42.2688 38.8212 43.1963 38.2973 44.1176 37.7646C45.0747 37.2109 46.0269 36.6497 46.984 36.0959C47.6756 35.6961 48.3734 35.3075 49.0625 34.904C50.1753 34.2522 51.2806 33.5879 52.3958 32.9385C53.3332 32.3922 54.2805 31.8621 55.2203 31.3195C56.1947 30.7558 57.1654 30.1847 58.1386 29.6197C58.7586 29.2597 59.3835 28.9071 59.9998 28.5408C60.0702 28.4986 60.0986 28.3881 60.1467 28.3086C60.3999 28.4079 60.2789 28.6289 60.2801 28.7891C60.2912 30.2517 60.2863 31.7143 60.2863 33.1782C60.2863 33.6711 60.2863 34.1628 60.2863 34.6718C59.3477 35.2094 58.4276 35.7309 57.5112 36.2623C56.806 36.6708 56.1021 37.0842 55.4068 37.5101C55.0662 37.7181 54.8176 37.8506 54.4558 38.0651C53.8396 38.4301 53.227 38.8014 52.6083 39.1602C51.6697 39.704 50.7236 40.2354 49.785 40.7805C48.865 41.3144 47.9548 41.8656 47.0347 42.3995C46.1146 42.9334 45.1859 43.4537 44.2633 43.9838C43.1987 44.5959 42.1366 45.2105 41.0758 45.8301C40.4397 46.2013 39.8185 46.5986 39.1714 46.9512C38.8738 47.1126 38.7873 47.3113 38.7898 47.6391C38.8072 49.504 38.6882 51.3967 38.8342 53.2561C39.7006 52.8819 40.4894 52.3389 41.3055 51.8667C42.7406 51.0361 44.1806 50.2154 45.6144 49.3823C47.1545 48.4883 48.6871 47.582 50.2259 46.688C51.146 46.1529 52.076 45.6351 52.996 45.1C54.1989 44.401 55.3957 43.6896 56.5986 42.9905C57.0535 42.7262 60.2789 40.7878 60.2789 41.081C60.2863 43.0837 60.285 45.0864 60.285 47.1251C60.0059 47.3001 59.7367 47.4802 59.4564 47.6428C58.5363 48.1755 57.61 48.6982 56.6912 49.2321C55.7723 49.7659 54.8584 50.3085 53.9421 50.8486C53.0442 51.3788 52.1513 51.9152 51.2497 52.4379C50.4877 52.8786 49.7134 53.2971 48.9514 53.7366C48.0832 54.2369 47.2249 54.751 46.3591 55.2563C45.7231 55.6275 45.0821 55.9888 44.4473 56.3601C43.6174 56.8443 42.7937 57.3397 41.9613 57.8202C40.83 58.472 39.6901 59.1102 38.5588 59.7621C37.656 60.2823 36.7607 60.8162 35.8616 61.3451C35.0502 61.8219 34.2413 62.3011 33.4262 62.7692C33.2316 59.0769 33.2312 41.8462 33.3656 32.088C39.3851 28.3077 54.1543 19.6923 60.3082 16Z" fill="white" fill-opacity="0.82"/>
<path d="M33.2312 31.9997L6.1543 17.2305V47.9997L11.0774 50.4612V25.8459L17.2312 29.5382V54.1535L22.1543 56.6151V31.9997L27.0774 34.8074V60.3074L33.2312 63.4997V31.9997Z" fill="#121F24"/>
<path d="M60.1191 41.3669C60.1191 43.3236 60.1054 45.2929 60.1303 47.2621C60.1353 47.6754 59.9934 47.8907 59.6511 48.0886C51.1418 52.9868 42.6263 57.8775 34.1457 62.8255C33.1897 63.3832 32.4876 63.4354 31.5702 62.8155C30.3553 61.994 29.052 61.2969 27.7637 60.5886C27.3741 60.3745 27.2658 60.1256 27.2695 59.7073C27.2894 57.9286 27.2782 56.1485 27.2782 54.2478C25.4571 55.2959 23.7257 56.2929 22.0153 57.2776C20.3212 56.2942 18.6495 55.3046 16.9566 54.3536C16.5732 54.1382 16.4512 53.8918 16.4574 53.471C16.4786 51.9151 16.4661 50.3591 16.4674 48.8031C16.4674 48.5803 16.4674 48.3588 16.4674 47.9729C14.6164 49.0396 12.8849 50.0367 11.1871 51.0139C9.55143 50.0703 7.93322 49.1094 6.28514 48.2044C5.76483 47.9193 5.59056 47.6019 5.5918 47.0019C5.61421 36.7338 5.60799 26.4669 5.60799 16.2125C7.29963 15.2316 8.9863 14.2706 10.6531 13.2748C11.0427 13.0421 11.3377 13.0383 11.7236 13.2711C13.0891 14.0951 14.4733 14.8868 15.8525 15.6884C16.0093 15.7793 16.1761 15.854 16.4101 15.971V9.96747C18.3059 8.87456 20.1507 7.81152 22.0265 6.73106C23.7057 7.69825 25.426 8.68909 27.2247 9.7235V3.71622C28.9325 2.7341 30.5893 1.81172 32.2125 0.832083C32.7142 0.528359 33.0764 0.576905 33.5606 0.859468C40.2413 4.74067 46.9344 8.60071 53.6251 12.4657C55.5259 13.5636 57.4266 14.6615 59.3299 15.7557C59.5801 15.9001 59.839 16.027 60.1178 16.1739C60.1178 18.2041 60.1303 20.2555 60.0979 22.3069C60.0954 22.5048 59.8602 22.7675 59.6647 22.8845C58.2059 23.7533 56.7283 24.5923 55.2582 25.4425C55.1549 25.5022 55.0578 25.5744 54.8736 25.6964C56.6437 26.7159 58.3528 27.6993 60.1166 28.715C60.1166 30.7589 60.1266 32.8738 60.0979 34.9874C60.0954 35.1667 59.8664 35.4032 59.6834 35.5115C58.1175 36.4401 56.5379 37.3462 54.8549 38.3222C56.6499 39.3615 58.3577 40.3499 60.1178 41.3681L60.1191 41.3669ZM38.2173 41.7191C38.1451 41.4739 38.1028 41.3992 38.1028 41.3245C38.099 39.3541 38.0891 37.3836 38.114 35.4131C38.1165 35.2401 38.2982 35.0086 38.4613 34.909C40.3272 33.7675 42.1919 32.6223 44.0839 31.5257C49.1726 28.5768 54.2724 25.6479 59.3747 22.7239C59.7033 22.5359 59.8477 22.338 59.8427 21.9509C59.8228 20.3339 59.8365 18.7157 59.8315 17.0975C59.8315 16.9482 59.7917 16.7988 59.7643 16.6058C59.5353 16.7353 59.3735 16.8262 59.2129 16.9183C56.0026 18.773 52.7936 20.6277 49.5833 22.4812C44.364 25.4948 39.1447 28.5084 33.9241 31.5182C33.3154 31.8692 33.0191 32.2975 33.0216 33.0779C33.054 42.7847 33.0428 52.4914 33.0415 62.1969C33.0415 62.4571 33.0415 62.7172 33.0415 63.0433C33.2407 62.955 33.3365 62.9214 33.4237 62.8716C42.0674 57.88 50.7098 52.8835 59.3598 47.9007C59.7133 47.6978 59.849 47.4812 59.8427 47.0742C59.8203 45.4771 59.8365 43.8801 59.834 42.283C59.834 42.1312 59.7954 41.9781 59.7656 41.7615C52.5309 45.9389 45.366 50.0753 38.1352 54.2503C38.1152 54.066 38.099 53.9914 38.099 53.9154C38.0978 51.9449 38.0854 49.9745 38.114 48.0052C38.1165 47.7999 38.3119 47.5173 38.4986 47.4053C40.204 46.3833 41.9217 45.385 43.6445 44.3929C48.8838 41.3756 54.1243 38.3607 59.3735 35.3621C59.7369 35.1542 59.8477 34.9227 59.8415 34.5243C59.8203 33.0729 59.8328 31.6203 59.8328 30.1689C59.8328 29.8477 59.8328 29.5266 59.8328 29.1258C52.582 33.3505 45.4407 37.5106 38.2161 41.7204L38.2173 41.7191ZM11.0427 25.4823C11.1696 25.5172 11.2319 25.5209 11.2804 25.5483C13.0057 26.5354 14.7359 27.5163 16.4475 28.5283C16.613 28.6266 16.7462 28.9117 16.7574 29.1183C16.7948 29.8428 16.7736 30.5697 16.7736 31.2954C16.7699 38.6172 16.7699 45.9377 16.7512 53.2594C16.7512 53.7075 16.8719 53.9677 17.2728 54.1905C18.6296 54.9448 19.9627 55.7427 21.3083 56.5182C21.4552 56.6029 21.622 56.6552 21.8722 56.7635V31.7771C23.6273 32.7904 25.2766 33.7775 26.9621 34.6961C27.4961 34.9874 27.6517 35.3148 27.6492 35.906C27.6181 43.7668 27.6168 51.6263 27.5981 59.487C27.5981 59.9115 27.6604 60.2065 28.0873 60.4405C29.5026 61.2173 30.8881 62.0488 32.2885 62.8541C32.4017 62.9189 32.5349 62.95 32.7204 63.0197C32.7204 62.7234 32.7204 62.4981 32.7204 62.2728C32.7204 52.5661 32.7079 42.8593 32.7428 33.1539C32.7453 32.3248 32.4241 31.8755 31.7793 31.5033C23.3136 26.6163 14.8504 21.7256 6.38597 16.8374C6.26772 16.7689 6.13328 16.7266 5.93163 16.6395C5.93163 16.9307 5.93163 17.1548 5.93163 17.3801C5.93163 27.2524 5.93536 37.1247 5.92042 46.997C5.92042 47.4737 6.0561 47.7364 6.48182 47.9679C7.84609 48.711 9.18173 49.5064 10.5298 50.2782C10.6643 50.3554 10.8136 50.4052 11.0439 50.5072V25.4836L11.0427 25.4823ZM6.12706 16.2673C6.37352 16.4216 6.5092 16.5125 6.65111 16.5946C15.133 21.4966 23.6199 26.391 32.0905 31.3128C32.6706 31.6502 33.0826 31.6415 33.6577 31.3079C41.862 26.5478 50.0812 21.814 58.2955 17.0701C58.7125 16.8287 59.117 16.5635 59.5876 16.2722C59.3809 16.1415 59.2627 16.0619 59.1407 15.9909C57.0246 14.7686 54.9072 13.5487 52.7911 12.3251C46.2996 8.57208 39.8081 4.82034 33.3216 1.05863C32.9917 0.868182 32.7353 0.869427 32.4092 1.06486C31.0922 1.85031 29.7603 2.60962 28.4334 3.37889C28.2454 3.48718 28.0612 3.6017 27.7898 3.76601C35.0456 7.95841 42.2006 12.0935 49.4576 16.2859C47.6577 17.3291 45.9685 18.2913 44.2993 19.2883C43.8648 19.5485 43.525 19.5273 43.0993 19.2771C40.921 17.9963 38.7264 16.7415 36.5393 15.4768C31.8602 12.7719 27.1836 10.0621 22.4958 7.37088C22.2855 7.25013 21.9145 7.18043 21.7253 7.28374C20.1818 8.12894 18.6632 9.02144 17.1396 9.90399C17.0985 9.92764 17.086 10.0036 17.0462 10.0845C24.1987 14.2159 31.3387 18.3423 38.5932 22.5335C38.2646 22.7413 38.0816 22.8646 37.8912 22.9753C36.4223 23.828 34.9398 24.6583 33.4884 25.5383C33.0415 25.8097 32.7179 25.8097 32.2598 25.5433C25.37 21.5302 18.4677 17.5382 11.563 13.5499C11.4061 13.4591 11.136 13.3831 11.0066 13.4553C9.40454 14.3565 7.81746 15.2864 6.12955 16.266L6.12706 16.2673ZM11.4285 26.0126V50.5259C13.0754 49.5799 14.6388 48.6911 16.1861 47.775C16.3193 47.6965 16.4188 47.4438 16.4188 47.2721C16.43 41.2835 16.43 35.2936 16.4188 29.305C16.4188 29.1283 16.3342 28.8656 16.2035 28.7872C14.6438 27.8598 13.0679 26.9586 11.4285 26.0126ZM59.6797 28.8146C58.044 27.871 56.5677 27.0358 55.1101 26.1682C54.7267 25.9392 54.4317 25.9292 54.0396 26.1632C50.7198 28.1374 47.39 30.093 44.0578 32.0473C42.3624 33.0418 40.6645 34.0339 38.9492 34.9949C38.5671 35.209 38.4376 35.4492 38.4439 35.8737C38.4663 37.4272 38.4513 38.9819 38.4551 40.5366C38.4551 40.7096 38.4812 40.8826 38.5048 41.1665C45.5789 37.04 52.567 32.9634 59.6797 28.8158V28.8146ZM22.2108 56.8307C23.8962 55.851 25.4746 54.9473 27.0318 54.0063C27.1849 53.9142 27.2695 53.5968 27.2708 53.3839C27.2832 47.5185 27.277 41.6532 27.2894 35.7878C27.2894 35.3982 27.155 35.1928 26.8239 35.0148C26.0945 34.6227 25.3899 34.187 24.6704 33.775C23.8725 33.3182 23.0697 32.8676 22.2108 32.3808V56.8307ZM38.4538 53.6802C45.5739 49.5674 52.5558 45.5344 59.5975 41.4664C59.4021 41.3333 59.2901 41.2474 59.1681 41.1752C57.81 40.381 56.442 39.6018 55.0952 38.7864C54.7081 38.5524 54.4218 38.5636 54.0297 38.7952C51.2974 40.4009 48.5489 41.9768 45.8054 43.5626C43.5113 44.8896 41.2135 46.2103 38.9281 47.5521C38.7277 47.6692 38.4787 47.9243 38.475 48.1185C38.4401 49.9197 38.4551 51.7209 38.4551 53.6789L38.4538 53.6802ZM27.6056 4.05729C27.6056 6.02403 27.5932 7.84513 27.6255 9.66624C27.628 9.8405 27.8732 10.0671 28.0612 10.1753C33.1461 13.1279 38.236 16.0706 43.3371 18.9946C43.5312 19.1053 43.8997 19.0904 44.1013 18.9784C45.5142 18.1967 46.9046 17.3751 48.2987 16.5623C48.4282 16.4876 48.5402 16.3843 48.7157 16.2523C41.679 12.1881 34.712 8.16255 27.6056 4.05853V4.05729ZM37.9459 22.5496C30.8545 18.4543 23.8588 14.415 16.7661 10.3197C16.7661 12.2778 16.7562 14.0989 16.7836 15.9212C16.786 16.0868 17.0039 16.3009 17.1757 16.4042C18.169 17.0017 19.1797 17.5743 20.1843 18.1543C24.2559 20.5045 28.3263 22.8571 32.4042 25.1973C32.5959 25.3068 32.9121 25.4313 33.0602 25.3491C34.6672 24.4591 36.2506 23.5293 37.9459 22.5509V22.5496Z" fill="#121F24"/>
<path d="M59.4511 40.7419C59.4511 42.6986 59.4374 44.6679 59.4623 46.6371C59.4673 47.0504 59.3254 47.2657 58.9831 47.4636C50.4738 52.3618 41.9583 57.2525 33.4777 62.2005C32.5217 62.7582 31.8196 62.8104 30.9022 62.1905C29.6873 61.369 28.3841 60.6719 27.0957 59.9636C26.7061 59.7495 26.5978 59.5006 26.6016 59.0823C26.6215 57.3036 26.6103 55.5235 26.6103 53.6228C24.7892 54.6709 23.0577 55.6679 21.3474 56.6525C19.6532 55.6692 17.9815 54.6796 16.2886 53.7286C15.9052 53.5132 15.7832 53.2668 15.7895 52.846C15.8106 51.2901 15.7982 49.7341 15.7994 48.1781C15.7994 47.9553 15.7994 47.7337 15.7994 47.3479C13.9484 48.4146 12.217 49.4117 10.5191 50.3888C8.88346 49.4453 7.26525 48.4843 5.61717 47.5794C5.09686 47.2943 4.92259 46.9769 4.92383 46.3769C4.94624 36.1088 4.94002 25.8419 4.94002 15.5875C6.63166 14.6066 8.31833 13.6456 9.98508 12.6498C10.3747 12.4171 10.6697 12.4133 11.0556 12.6461C12.4211 13.4701 13.8053 14.2618 15.1845 15.0634C15.3413 15.1543 15.5081 15.229 15.7422 15.346V9.34247C17.6379 8.24956 19.4827 7.18652 21.3586 6.10606C23.0378 7.07325 24.758 8.06409 26.5567 9.09849V3.09122C28.2646 2.1091 29.9214 1.18672 31.5445 0.207083C32.0462 -0.0966411 32.4084 -0.048095 32.8926 0.234468C39.5733 4.11567 46.2665 7.97571 52.9571 11.8407C54.8579 12.9386 56.7587 14.0365 58.6619 15.1307C58.9121 15.2751 59.171 15.402 59.4499 15.5489C59.4499 17.5791 59.4623 19.6305 59.43 21.6819C59.4275 21.8798 59.1922 22.1425 58.9968 22.2595C57.5379 23.1283 56.0604 23.9673 54.5903 24.8175C54.487 24.8772 54.3899 24.9494 54.2056 25.0714C55.9757 26.0909 57.6848 27.0743 59.4486 28.09C59.4486 30.1339 59.4586 32.2488 59.43 34.3624C59.4275 34.5416 59.1984 34.7782 59.0154 34.8864C57.4495 35.815 55.8699 36.7212 54.187 37.6971C55.9819 38.7365 57.6898 39.7249 59.4499 40.7431L59.4511 40.7419ZM37.5493 41.0941C37.4771 40.8489 37.4348 40.7742 37.4348 40.6995C37.4311 38.7291 37.4211 36.7586 37.446 34.7881C37.4485 34.6151 37.6302 34.3836 37.7933 34.284C39.6592 33.1425 41.5239 31.9973 43.4159 30.9007C48.5046 27.9518 53.6044 25.0229 58.7067 22.0989C59.0354 21.9109 59.1798 21.713 59.1748 21.3259C59.1549 19.7089 59.1686 18.0907 59.1636 16.4725C59.1636 16.3232 59.1237 16.1738 59.0964 15.9808C58.8673 16.1103 58.7055 16.2012 58.5449 16.2933C55.3346 18.148 52.1256 20.0027 48.9154 21.8562C43.696 24.8698 38.4767 27.8834 33.2561 30.8932C32.6474 31.2442 32.3512 31.6724 32.3537 32.4529C32.386 42.1597 32.3748 51.8664 32.3736 61.5719C32.3736 61.832 32.3736 62.0922 32.3736 62.4183C32.5727 62.33 32.6686 62.2963 32.7557 62.2466C41.3994 57.255 50.0419 52.2585 58.6918 47.2757C59.0453 47.0728 59.181 46.8562 59.1748 46.4491C59.1524 44.8521 59.1686 43.2551 59.1661 41.658C59.1661 41.5062 59.1275 41.353 59.0976 41.1365C51.863 45.3139 44.6981 49.4503 37.4672 53.6253C37.4473 53.441 37.4311 53.3663 37.4311 53.2904C37.4298 51.3199 37.4174 49.3495 37.446 47.3802C37.4485 47.1748 37.6439 46.8923 37.8307 46.7803C39.536 45.7583 41.2538 44.76 42.9765 43.7679C48.2158 40.7506 53.4563 37.7357 58.7055 34.7371C59.069 34.5292 59.1798 34.2977 59.1735 33.8993C59.1524 32.4479 59.1648 30.9953 59.1648 29.5439C59.1648 29.2227 59.1648 28.9016 59.1648 28.5008C51.914 32.7255 44.7728 36.8856 37.5481 41.0954L37.5493 41.0941ZM10.3747 24.8573C10.5017 24.8922 10.5639 24.8959 10.6124 24.9233C12.3377 25.9104 14.0679 26.8913 15.7795 27.9033C15.9451 28.0016 16.0782 28.2867 16.0894 28.4933C16.1268 29.2178 16.1056 29.9447 16.1056 30.6704C16.1019 37.9922 16.1019 45.3127 16.0832 52.6344C16.0832 53.0825 16.204 53.3427 16.6048 53.5655C17.9616 54.3198 19.2947 55.1177 20.6403 55.8932C20.7872 55.9779 20.954 56.0302 21.2042 56.1385V31.1521C22.9594 32.1654 24.6087 33.1525 26.2941 34.0711C26.8281 34.3624 26.9837 34.6898 26.9812 35.281C26.9501 43.1418 26.9488 51.0013 26.9302 58.862C26.9302 59.2865 26.9924 59.5815 27.4194 59.8155C28.8347 60.5923 30.2201 61.4238 31.6205 62.2291C31.7338 62.2939 31.8669 62.325 32.0524 62.3947C32.0524 62.0984 32.0524 61.8731 32.0524 61.6478C32.0524 51.9411 32.04 42.2343 32.0748 32.5288C32.0773 31.6998 31.7562 31.2505 31.1114 30.8783C22.6457 25.9913 14.1825 21.1006 5.718 16.2124C5.59975 16.1439 5.46531 16.1016 5.26366 16.0145C5.26366 16.3057 5.26366 16.5298 5.26366 16.7551C5.26366 26.6274 5.26739 36.4997 5.25245 46.372C5.25245 46.8487 5.38813 47.1114 5.81385 47.3429C7.17812 48.086 8.51376 48.8814 9.86185 49.6532C9.99628 49.7304 10.1457 49.7802 10.3759 49.8822V24.8586L10.3747 24.8573ZM5.45909 15.6423C5.70555 15.7966 5.84123 15.8875 5.98314 15.9696C14.465 20.8716 22.9519 25.766 31.4226 30.6878C32.0026 31.0252 32.4146 31.0165 32.9897 30.6829C41.194 25.9228 49.4133 21.189 57.6275 16.4451C58.0445 16.2037 58.4491 15.9385 58.9196 15.6472C58.713 15.5165 58.5947 15.4369 58.4727 15.3659C56.3566 14.1436 54.2393 12.9237 52.1231 11.7001C45.6316 7.94708 39.1402 4.19533 32.6536 0.433632C32.3238 0.243182 32.0674 0.244427 31.7412 0.439856C30.4243 1.22531 29.0923 1.98462 27.7654 2.75389C27.5775 2.86218 27.3932 2.9767 27.1219 3.14101C34.3777 7.33341 41.5326 11.4685 48.7896 15.6609C46.9897 16.7041 45.3005 17.6663 43.6313 18.6633C43.1969 18.9235 42.857 18.9023 42.4313 18.6521C40.253 17.3713 38.0584 16.1165 35.8714 14.8518C31.1923 12.1469 26.5157 9.43707 21.8279 6.74587C21.6175 6.62513 21.2465 6.55542 21.0573 6.65874C19.5138 7.50394 17.9952 8.39644 16.4716 9.27899C16.4305 9.30264 16.4181 9.37857 16.3782 9.45948C23.5307 13.5909 30.6707 17.7173 37.9253 21.9084C37.5966 22.1163 37.4137 22.2396 37.2232 22.3503C35.7544 23.203 34.2718 24.0333 32.8204 24.9133C32.3736 25.1847 32.0499 25.1847 31.5919 24.9183C24.702 20.9052 17.7998 16.9132 10.895 12.9249C10.7382 12.8341 10.4681 12.7581 10.3386 12.8303C8.73657 13.7315 7.14949 14.6614 5.46158 15.641L5.45909 15.6423ZM10.7606 25.3876V49.9009C12.4074 48.9549 13.9708 48.0661 15.5181 47.15C15.6513 47.0715 15.7509 46.8188 15.7509 46.6471C15.7621 40.6585 15.7621 34.6686 15.7509 28.68C15.7509 28.5033 15.6662 28.2406 15.5355 28.1622C13.9758 27.2348 12.3999 26.3336 10.7606 25.3876ZM59.0117 28.1896C57.3761 27.246 55.8998 26.4108 54.4422 25.5432C54.0588 25.3141 53.7637 25.3042 53.3716 25.5382C50.0518 27.5124 46.7221 29.468 43.3898 31.4222C41.6944 32.4168 39.9966 33.4089 38.2813 34.3699C37.8991 34.584 37.7697 34.8242 37.7759 35.2487C37.7983 36.8022 37.7834 38.3569 37.7871 39.9116C37.7871 40.0846 37.8132 40.2576 37.8369 40.5415C44.9109 36.415 51.8991 32.3384 59.0117 28.1908V28.1896ZM21.5428 56.2057C23.2282 55.226 24.8066 54.3223 26.3638 53.3813C26.5169 53.2892 26.6016 52.9718 26.6028 52.7589C26.6152 46.8935 26.609 41.0282 26.6215 35.1628C26.6215 34.7732 26.487 34.5678 26.1559 34.3898C25.4265 33.9977 24.7219 33.562 24.0025 33.15C23.2046 32.6932 22.4017 32.2426 21.5428 31.7558V56.2057ZM37.7858 53.0552C44.9059 48.9424 51.8879 44.9094 58.9296 40.8414C58.7341 40.7082 58.6221 40.6224 58.5001 40.5502C57.1421 39.756 55.7741 38.9768 54.4272 38.1614C54.0401 37.9274 53.7538 37.9386 53.3617 38.1702C50.6294 39.7759 47.881 41.3518 45.1375 42.9376C42.8434 44.2646 40.5455 45.5853 38.2601 46.9271C38.0597 47.0441 37.8107 47.2993 37.807 47.4935C37.7721 49.2947 37.7871 51.0959 37.7871 53.0539L37.7858 53.0552ZM26.9376 3.43229C26.9376 5.39903 26.9252 7.22013 26.9576 9.04123C26.9601 9.2155 27.2053 9.44205 27.3932 9.55035C32.4781 12.5029 37.568 15.4456 42.6691 18.3696C42.8633 18.4803 43.2317 18.4654 43.4334 18.3534C44.8462 17.5717 46.2366 16.7501 47.6308 15.9373C47.7602 15.8626 47.8722 15.7593 48.0478 15.6273C41.0111 11.5631 34.0441 7.53755 26.9376 3.43353V3.43229ZM37.278 21.9246C30.1865 17.8293 23.1909 13.79 16.0982 9.69474C16.0982 11.6528 16.0882 13.4739 16.1156 15.2962C16.1181 15.4618 16.3359 15.6759 16.5077 15.7792C17.501 16.3767 18.5118 16.9493 19.5163 17.5293C23.588 19.8795 27.6584 22.2321 31.7362 24.5723C31.9279 24.6818 32.2441 24.8063 32.3922 24.7241C33.9992 23.8341 35.5826 22.9043 37.278 21.9259V21.9246Z" fill="#121F24"/>
<path d="M32.4196 64.0015V63.8522C32.0263 63.7824 31.6342 63.6082 31.2221 63.3293C30.1504 62.6036 28.9778 61.9626 27.8451 61.3414L27.4654 61.1336C26.8928 60.8199 26.6414 60.3768 26.6489 59.7008C26.6638 58.4075 26.6613 57.1266 26.6588 55.7711C26.6588 55.623 26.6588 55.4736 26.6588 55.3242L22.0158 57.9967L21.7283 57.8299L21.5876 57.9121V57.749C21.1756 57.5088 20.7636 57.2698 20.354 57.0296C19.1429 56.3225 17.8919 55.5918 16.6533 54.8973C16.087 54.5786 15.8268 54.123 15.8355 53.4633C15.8517 52.338 15.8492 51.1916 15.8467 50.0837C15.8467 49.7402 15.8455 49.3954 15.8455 49.0518L11.6655 51.4629H11.663L11.1888 51.7355L10.8838 51.56L10.8066 51.6048V51.5165C10.3734 51.2663 9.94151 51.0161 9.51082 50.7646C8.3594 50.0949 7.1694 49.4028 5.98811 48.7543C5.27361 48.3622 4.96988 47.8394 4.97237 47.0054C4.99105 38.5907 4.9898 30.0379 4.98856 21.7664V16.2894L4.92383 16.2496L4.98731 16.2122V15.8587L5.29726 15.6782C5.75036 15.4156 6.20221 15.1554 6.65282 14.894C7.86398 14.1944 9.11747 13.4712 10.3349 12.7443C10.9236 12.3932 11.4676 12.392 12.0464 12.7418C13.0983 13.3766 14.1812 14.0027 15.2281 14.6102C15.4148 14.7185 15.6015 14.8268 15.7882 14.9351V9.61118L16.143 9.40704V9.24397L16.2836 9.32488L22.027 6.01503L26.6028 8.65022V3.80183L26.563 3.77818L26.6028 3.75453V3.35495L26.9152 3.17571C26.9376 3.16326 26.96 3.14957 26.9824 3.13712V2.97779L27.1206 3.05745C27.5301 2.82219 27.9372 2.59066 28.3417 2.36038C29.5703 1.66082 30.7305 0.998598 31.8918 0.297791C32.7321 -0.210076 33.3656 0.0239412 33.8735 0.318952C39.3655 3.50931 44.9582 6.73949 50.3668 9.86263L53.9368 11.9252C55.8375 13.0231 57.7383 14.1197 59.6403 15.2151C59.7972 15.306 59.9627 15.3919 60.1395 15.4828C60.2279 15.5288 60.3175 15.5749 60.4096 15.6234L60.7407 15.7989V16.2657L60.7606 16.2782L60.7407 16.2906C60.7407 16.6927 60.7407 17.0948 60.7407 17.4968C60.7432 19.0739 60.7444 20.7046 60.7195 22.3153C60.7121 22.8444 60.2341 23.2676 59.9826 23.4182C58.9071 24.058 57.8068 24.6916 56.7425 25.3053C56.5259 25.4298 56.3093 25.5542 56.0927 25.68L60.3274 28.1172L60.7395 28.355V28.9151C60.7395 29.2724 60.7395 29.6321 60.7395 29.9931C60.7407 31.6262 60.7432 33.3154 60.7195 34.9958C60.7133 35.4925 60.264 35.8908 60.0001 36.0477C58.7926 36.7634 57.5902 37.4592 56.3168 38.1961C56.2433 38.2385 56.1711 38.2808 56.0977 38.3231L60.7407 41.0093V41.4935L60.7643 41.5097L60.7407 41.5234C60.7407 41.9865 60.7407 42.4495 60.7382 42.9138C60.7357 44.3366 60.7332 45.8079 60.7519 47.2556C60.7594 47.878 60.5079 48.3137 59.9602 48.6298L56.6641 50.5269C49.3772 54.7205 41.8425 59.056 34.4586 63.3642C34.0615 63.5957 33.693 63.7513 33.3408 63.8298V63.9219L33.1789 63.8609C33.0121 63.887 32.8491 63.8945 32.686 63.8858L32.4196 64.004V64.0015ZM21.2478 30.6976L22.1814 31.2366C22.6768 31.5229 23.1647 31.8067 23.6465 32.088C24.885 32.81 26.0563 33.4921 27.2588 34.1481C27.9708 34.5365 28.2733 35.0618 28.2695 35.907C28.2496 40.8463 28.2422 45.8702 28.2347 50.7273C28.2297 53.6475 28.226 56.5665 28.2185 59.4867C28.2185 59.8017 28.2434 59.8154 28.3841 59.8938C29.355 60.4265 30.3247 60.9929 31.2632 61.5394C31.5408 61.7012 31.8184 61.863 32.096 62.0236C32.096 60.083 32.096 58.1424 32.0947 56.2005C32.0922 48.6448 32.0898 40.8326 32.1184 33.1486C32.1209 32.5947 31.9615 32.3258 31.4661 32.0395C26.4559 29.1479 21.4469 26.2538 16.438 23.3609C13.1431 21.4577 9.84815 19.5544 6.55324 17.6512V22.3004C6.55324 30.3939 6.55324 38.7638 6.54203 46.9967C6.54203 47.2718 6.5744 47.3091 6.77854 47.4199C7.71959 47.9328 8.65939 48.4767 9.56683 49.0033C9.85064 49.1676 10.1357 49.3331 10.4195 49.4962V24.6667L11.205 24.8796C11.2411 24.8895 11.2709 24.8957 11.2958 24.902C11.3767 24.9206 11.4763 24.943 11.5883 25.0065L12.4883 25.5206C13.8924 26.3223 15.3451 27.1525 16.7616 27.9903C17.1388 28.2131 17.3566 28.7085 17.3753 29.0832C17.4039 29.6371 17.4002 30.1923 17.3952 30.73C17.394 30.918 17.3927 31.1047 17.3927 31.2926V35.0543C17.3877 41.0205 17.3853 47.1896 17.3703 53.2579C17.3703 53.5218 17.4052 53.5504 17.572 53.6425C18.4831 54.1492 19.3956 54.6819 20.2781 55.1973C20.6005 55.3852 20.9241 55.5744 21.2478 55.7624V30.6951V30.6976ZM59.2109 17.6387L55.8276 19.5943C53.8509 20.737 51.8729 21.8797 49.895 23.0211L48.822 23.641C43.9599 26.448 39.0991 29.2549 34.2345 32.0582C33.7802 32.3208 33.642 32.5586 33.6432 33.0764C33.6694 40.8039 33.6669 48.6609 33.6644 56.259C33.6644 58.1772 33.6644 60.0967 33.6644 62.0149L38.6124 59.1569C45.3092 55.2881 52.2339 51.2887 59.0503 47.3626C59.2246 47.2631 59.2246 47.2456 59.2221 47.0838C59.2071 46.0245 59.2096 44.9503 59.2121 43.9109C59.2121 43.5412 59.2134 43.1715 59.2134 42.8006L37.6215 55.267L37.517 54.3197C37.5095 54.2562 37.5033 54.2064 37.4983 54.1653C37.4871 54.0794 37.4771 54.0048 37.4771 53.9164V52.7525C37.4722 51.1941 37.4697 49.5833 37.4921 47.9962C37.4983 47.5282 37.8506 47.0676 38.1792 46.871C40.0588 45.7444 41.921 44.6665 43.335 43.8524C48.339 40.972 53.6741 37.9011 59.0665 34.8203C59.2134 34.7369 59.2246 34.7257 59.2208 34.5315C59.2046 33.4685 59.2071 32.3905 59.2096 31.3486C59.2096 30.9677 59.2109 30.5881 59.2109 30.2072L37.8443 42.6549L37.619 41.8956C37.5941 41.8097 37.573 41.7475 37.5568 41.6989C37.5195 41.5869 37.4796 41.4724 37.4796 41.3243V40.5911C37.4734 38.892 37.4697 37.1356 37.4896 35.4054C37.4946 34.9871 37.8182 34.5714 38.1356 34.3772L38.5663 34.1133C40.2629 33.0751 42.0181 32.0022 43.7719 30.9864C49.2016 27.8396 54.5492 24.7713 59.0652 22.1834C59.2221 22.0938 59.2221 22.0913 59.2208 21.9581C59.2071 20.8975 59.2084 19.8208 59.2096 18.7802C59.2096 18.3993 59.2109 18.0196 59.2109 17.6387ZM22.8311 33.4461V55.7487C22.8871 55.7163 22.9419 55.684 22.9979 55.6516C24.2539 54.9234 25.4427 54.235 26.6227 53.523C26.6352 53.482 26.6464 53.4259 26.6464 53.3799C26.6526 50.4472 26.6538 47.5158 26.6563 44.5831C26.6576 41.6504 26.6588 38.7177 26.6663 35.7838C26.6663 35.6842 26.6202 35.6095 26.5281 35.5597C26.0476 35.302 25.5746 35.0232 25.1178 34.7543C24.8663 34.6062 24.6136 34.4581 24.3597 34.3125C23.8568 34.0237 23.3502 33.7399 22.8311 33.4461ZM39.0928 48.2166C39.068 49.5696 39.0704 50.9227 39.0729 52.3529C39.0729 52.4351 39.0729 52.5185 39.0729 52.6007L58.3906 41.4425C58.1292 41.2906 57.8678 41.1388 57.6064 40.9869C56.674 40.4467 55.7106 39.8878 54.7708 39.3189C54.6015 39.2169 54.5629 39.2019 54.3426 39.3314C52.2912 40.5363 50.1975 41.745 48.1722 42.9138C47.4864 43.3097 46.8005 43.7055 46.1159 44.1013L44.7379 44.8968C42.933 45.9386 41.0683 47.0166 39.2422 48.0884C39.1875 48.1207 39.1265 48.1767 39.0928 48.2166ZM12.0489 27.089V49.4501L12.1572 49.3879C13.4132 48.6684 14.6007 47.9875 15.7882 47.2855C15.7907 47.2755 15.7932 47.2668 15.7944 47.2606C15.8056 41.4064 15.8056 35.3618 15.7944 29.306C15.7944 29.296 15.7919 29.2811 15.787 29.2649C14.587 28.5529 13.3933 27.8645 12.1298 27.1363L12.0489 27.089ZM54.5679 26.6123C54.5081 26.6123 54.4496 26.6409 54.3563 26.6957C50.9319 28.7321 47.5461 30.72 44.3707 32.581C42.6442 33.593 40.9538 34.5813 39.2522 35.5348C39.0754 35.6332 39.0617 35.6581 39.0642 35.8609C39.0792 36.9115 39.0779 37.9771 39.0767 39.0065C39.0767 39.3737 39.0767 39.7409 39.0767 40.1081L58.4379 28.8155C58.3059 28.7396 58.174 28.6637 58.0445 28.589C56.9155 27.9405 55.85 27.3293 54.7919 26.6994C54.6923 26.6409 54.6313 26.611 54.5704 26.611L54.5679 26.6123ZM7.34616 16.2782L12.3439 19.1661C18.9213 22.9651 25.7215 26.8936 32.4009 30.7748C32.7806 30.9951 32.9574 30.9951 33.3432 30.7698C39.4588 27.221 45.6852 23.6286 51.7061 20.1544C53.7986 18.947 55.8898 17.7395 57.9823 16.5321C58.1192 16.4525 58.2574 16.3691 58.3968 16.2832C57.6387 15.845 56.8794 15.4081 56.1213 14.9699C54.9064 14.2691 53.6915 13.5683 52.4767 12.8663L51.0701 12.0534C45.1487 8.6303 39.0244 5.09017 33.0059 1.59982C32.8727 1.52265 32.8565 1.52265 32.7233 1.60231C31.7835 2.16246 30.8213 2.71763 29.8915 3.25537C29.599 3.42342 29.3077 3.5927 29.0164 3.76199L50.6954 16.2881L49.7655 16.8271C49.2701 17.1147 48.7822 17.396 48.3017 17.6736C47.0258 18.4092 45.8208 19.1051 44.6147 19.8245C43.9985 20.193 43.4159 20.1905 42.7799 19.8158C41.2314 18.9059 39.6493 17.9935 38.1182 17.1109C37.4871 16.7475 36.8547 16.3827 36.2236 16.018L33.5474 14.4695C29.8243 12.3161 25.9754 10.0892 22.1826 7.91207C22.1303 7.88219 22.0307 7.85854 21.9735 7.8573C20.7125 8.54939 19.4454 9.28505 18.2192 9.99582L18.1769 10.0207L39.7937 22.5095L38.9223 23.0597C38.8078 23.1319 38.7119 23.1941 38.6261 23.2489C38.463 23.3535 38.3348 23.4356 38.1991 23.514C37.7547 23.7717 37.3103 24.0269 36.8647 24.2833C35.8564 24.8621 34.8146 25.4609 33.8063 26.0721C33.169 26.4592 32.5926 26.4617 31.9416 26.082C24.88 21.9693 17.8222 17.8877 11.246 14.0899C11.2311 14.0812 11.2099 14.0724 11.1888 14.065C9.96267 14.7558 8.75275 15.4591 7.47437 16.2023L7.34242 16.2782H7.34616ZM17.4039 15.7965C17.4288 15.8214 17.4637 15.8512 17.496 15.8699C18.2479 16.3218 19.0246 16.7686 19.7765 17.2006C20.0155 17.3387 20.2557 17.4757 20.4947 17.6138L22.3295 18.6731C25.7315 20.6374 29.2492 22.6676 32.7134 24.6568C32.7731 24.6904 32.8354 24.7177 32.8827 24.7339C34.0926 24.0617 35.2838 23.3709 36.5436 22.6415C36.5958 22.6103 36.6494 22.5805 36.7016 22.5493L17.3865 11.3962C17.3865 11.4547 17.3865 11.5119 17.3865 11.5705C17.3853 13.0306 17.384 14.411 17.4039 15.7965ZM43.6263 18.4428C43.6724 18.4528 43.7682 18.4466 43.8056 18.4304C44.952 17.7956 46.1134 17.1172 47.2374 16.4612L47.5336 16.2881L28.226 5.13498C28.226 5.2022 28.226 5.26941 28.226 5.33539C28.2235 6.78804 28.2222 8.16227 28.2446 9.53774C28.277 9.5701 28.3256 9.60994 28.3716 9.63608C34.2942 13.0741 39.1426 15.8736 43.6263 18.4428Z" fill="#121F24"/>
</svg>
