<svg width="24" height="24" viewBox="0 0 24 24" fill="none" xmlns="http://www.w3.org/2000/svg">
<path d="M21.7492 20.6886L16.0851 15.0246C17.4462 13.3906 18.1249 11.2948 17.98 9.17314C17.8352 7.05151 16.878 5.06738 15.3075 3.63353C13.737 2.19967 11.6742 1.42648 9.54821 1.47479C7.42218 1.5231 5.39663 2.3892 3.89292 3.89292C2.3892 5.39663 1.5231 7.42218 1.47479 9.54821C1.42648 11.6742 2.19967 13.737 3.63353 15.3075C5.06738 16.878 7.05151 17.8352 9.17314 17.98C11.2948 18.1249 13.3906 17.4462 15.0246 16.0851L20.6886 21.7492L21.7492 20.6886ZM2.9992 9.7492C2.9992 8.41418 3.39508 7.10913 4.13678 5.9991C4.87848 4.88907 5.93269 4.02391 7.16609 3.51301C8.39949 3.00212 9.75669 2.86845 11.0661 3.1289C12.3754 3.38935 13.5782 4.03223 14.5222 4.97623C15.4662 5.92023 16.1091 7.12297 16.3695 8.43234C16.63 9.74171 16.4963 11.0989 15.9854 12.3323C15.4745 13.5657 14.6093 14.6199 13.4993 15.3616C12.3893 16.1033 11.0842 16.4992 9.7492 16.4992C7.9596 16.4972 6.24386 15.7854 4.97842 14.52C3.71298 13.2545 3.00119 11.5388 2.9992 9.7492Z" fill="#121F24"/>
</svg>
