<svg width="24" height="24" viewBox="0 0 24 24" fill="none" xmlns="http://www.w3.org/2000/svg">
<path d="M20.2509 12.5715C20.2509 12.384 20.2509 12.1965 20.2509 12.0015C20.2509 11.8065 20.2509 11.619 20.2509 11.424L21.6909 10.164C21.9564 9.93006 22.1306 9.6098 22.1827 9.25983C22.2349 8.90986 22.1616 8.55272 21.9759 8.25153L20.2059 5.25153C20.0744 5.02372 19.8853 4.83451 19.6576 4.70287C19.4298 4.57123 19.1715 4.5018 18.9084 4.50153C18.7454 4.50028 18.5833 4.52561 18.4284 4.57653L16.6059 5.19153C16.2913 4.98243 15.963 4.79452 15.6234 4.62903L15.2409 2.73903C15.1723 2.39373 14.9845 2.08356 14.7103 1.8628C14.436 1.64205 14.0929 1.52478 13.7409 1.53153H10.2309C9.87895 1.52478 9.53581 1.64205 9.26158 1.8628C8.98735 2.08356 8.79951 2.39373 8.73092 2.73903L8.34842 4.62903C8.00637 4.79448 7.67565 4.98239 7.35842 5.19153L5.57342 4.54653C5.41689 4.50574 5.2548 4.49055 5.09342 4.50153C4.83038 4.5018 4.57203 4.57123 4.34429 4.70287C4.11656 4.83451 3.92744 5.02372 3.79592 5.25153L2.02592 8.25153C1.85086 8.55227 1.78581 8.90452 1.84191 9.24795C1.89801 9.59138 2.07176 9.90462 2.33342 10.134L3.75092 11.4315C3.75092 11.619 3.75092 11.8065 3.75092 12.0015C3.75092 12.1965 3.75092 12.384 3.75092 12.579L2.33342 13.839C2.06437 14.07 1.88586 14.3889 1.82957 14.739C1.77328 15.0891 1.84284 15.4478 2.02592 15.7515L3.79592 18.7515C3.92744 18.9793 4.11656 19.1685 4.34429 19.3002C4.57203 19.4318 4.83038 19.5013 5.09342 19.5015C5.25643 19.5028 5.41856 19.4774 5.57342 19.4265L7.39592 18.8115C7.71058 19.0206 8.0388 19.2085 8.37842 19.374L8.76092 21.264C8.82951 21.6093 9.01735 21.9195 9.29158 22.1402C9.56581 22.361 9.90895 22.4783 10.2609 22.4715H13.8009C14.1529 22.4783 14.496 22.361 14.7703 22.1402C15.0445 21.9195 15.2323 21.6093 15.3009 21.264L15.6834 19.374C16.0255 19.2086 16.3562 19.0207 16.6734 18.8115L18.4884 19.4265C18.6433 19.4774 18.8054 19.5028 18.9684 19.5015C19.2315 19.5013 19.4898 19.4318 19.7176 19.3002C19.9453 19.1685 20.1344 18.9793 20.2659 18.7515L21.9759 15.7515C22.151 15.4508 22.216 15.0985 22.1599 14.7551C22.1038 14.4117 21.9301 14.0984 21.6684 13.869L20.2509 12.5715ZM18.9084 18.0015L16.3359 17.1315C15.7337 17.6416 15.0455 18.0403 14.3034 18.309L13.7709 21.0015H10.2309L9.69842 18.339C8.96224 18.0627 8.27771 17.6647 7.67342 17.1615L5.09342 18.0015L3.32342 15.0015L5.36342 13.2015C5.22475 12.4252 5.22475 11.6304 5.36342 10.854L3.32342 9.00153L5.09342 6.00153L7.66592 6.87153C8.26812 6.36144 8.95638 5.96272 9.69842 5.69403L10.2309 3.00153H13.7709L14.3034 5.66403C15.0396 5.94034 15.7241 6.33838 16.3284 6.84153L18.9084 6.00153L20.6784 9.00153L18.6384 10.8015C18.7771 11.5779 18.7771 12.3727 18.6384 13.149L20.6784 15.0015L18.9084 18.0015Z" fill="#121F24"/>
<path d="M12.0009 16.5015C11.1109 16.5015 10.2409 16.2376 9.50086 15.7431C8.76083 15.2487 8.18406 14.5459 7.84346 13.7236C7.50287 12.9013 7.41376 11.9965 7.58739 11.1236C7.76102 10.2507 8.18961 9.44888 8.81894 8.81955C9.44828 8.19021 10.2501 7.76163 11.123 7.58799C11.9959 7.41436 12.9007 7.50347 13.723 7.84407C14.5453 8.18466 15.2481 8.76144 15.7425 9.50146C16.237 10.2415 16.5009 11.1115 16.5009 12.0015C16.5069 12.5941 16.3947 13.182 16.1706 13.7307C15.9466 14.2794 15.6154 14.7779 15.1963 15.1969C14.7772 15.616 14.2788 15.9472 13.7301 16.1712C13.1814 16.3953 12.5935 16.5075 12.0009 16.5015ZM12.0009 9.00153C11.6044 8.99229 11.2102 9.06358 10.842 9.21107C10.4739 9.35856 10.1395 9.5792 9.85904 9.85964C9.5786 10.1401 9.35796 10.4745 9.21047 10.8426C9.06297 11.2108 8.99169 11.605 9.00092 12.0015C8.99169 12.398 9.06297 12.7923 9.21047 13.1604C9.35796 13.5286 9.5786 13.863 9.85904 14.1434C10.1395 14.4239 10.4739 14.6445 10.842 14.792C11.2102 14.9395 11.6044 15.0108 12.0009 15.0015C12.3974 15.0108 12.7917 14.9395 13.1598 14.792C13.528 14.6445 13.8624 14.4239 14.1428 14.1434C14.4232 13.863 14.6439 13.5286 14.7914 13.1604C14.9389 12.7923 15.0102 12.398 15.0009 12.0015C15.0102 11.605 14.9389 11.2108 14.7914 10.8426C14.6439 10.4745 14.4232 10.1401 14.1428 9.85964C13.8624 9.5792 13.528 9.35856 13.1598 9.21107C12.7917 9.06358 12.3974 8.99229 12.0009 9.00153Z" fill="#121F24"/>
</svg>
